<svg width="75px" height="69px" viewBox="0 0 912 843" version="1.1" xmlns="http://www.w3.org/2000/svg" xmlns:xlink="http://www.w3.org/1999/xlink">
    <g id="Design" stroke="none" stroke-width="1" fill="none" fill-rule="evenodd">
        <g id="Desktop-HD" transform="translate(-475.000000, -123.000000)" fill="#000000" fill-rule="nonzero">
            <g id="47b4eeeeffede5782c26037e55c38928" transform="translate(475.000000, 123.000000)">
                <path d="M265.4,304 C209.4,304 164,349.4 164,405.4 C164,461.4 209.4,506.8 265.4,506.8 C321.4,506.8 366.8,461.4 366.8,405.4 C366.8,349.4 321.4,304 265.4,304 Z" id="Path"></path>
                <path d="M745.9,405.4 C745.9,349.4 700.5,304 644.5,304 C588.5,304 543.1,349.4 543.1,405.4 C543.1,461.4 588.5,506.8 644.5,506.8 C700.5,506.8 745.9,461.4 745.9,405.4 Z" id="Path"></path>
                <path d="M455.7,311.9 C497.7,311.9 531.7,277.9 531.7,235.9 C531.7,193.9 497.7,159.9 455.7,159.9 C413.7,159.9 379.7,193.9 379.7,235.9 C379.7,277.9 413.8,311.9 455.7,311.9 Z" id="Path"></path>
                <path d="M455.7,662.4 C497.7,662.4 531.7,628.4 531.7,586.4 C531.7,544.4 497.7,510.4 455.7,510.4 C413.7,510.4 379.7,544.4 379.7,586.4 C379.7,628.4 413.8,662.4 455.7,662.4 Z" id="Path"></path>
                <path d="M664.3,0.9 C684.6,0.9 704.5,6.2 722,16.4 C730.4,21.3 738.2,27.2 745.1,34 C850.9,121.2 911.5,249.6 911.5,386.5 C911.5,508.4 864,623.1 777.8,709.3 C691.835906,795.264094 577.527592,842.739721 456.000659,842.998933 L456,789.39 L461.553411,789.345899 C680.69593,785.77987 857.8,606.379 857.8,386.5 C857.8,266.512 804.97261,153.87475 712.804986,77.0180107 L710,74.7 L708.9,73.8 L707.9,72.8 C704.1,68.9 699.7,65.6 695,62.8 C685.906667,57.52 675.570469,54.6301235 665.019692,54.5042919 L664.3,54.5 L456,54.499 L456,0.899 L664.3,0.9 Z" id="Combined-Shape"></path>
                <path d="M209.34401,0.90081669 C229.648279,0.90081669 249.552463,6.20081155 267.056143,16.4008017 C275.457909,21.3007969 283.25955,27.2007912 290.161,34.0007846 C395.983247,121.2007 456.59599,249.600575 456.59599,386.500443 C456.59599,508.400325 409.086002,623.100213 322.867876,709.30013 C236.649751,795.500046 121.925632,843 0,843 L0,789.399 L6.55478881,789.345952 C225.743388,785.779925 402.884698,606.379229 402.884698,386.500443 C402.884698,266.512559 350.0462,153.875418 257.859196,77.0187536 L255.05362,74.7007451 L253.953389,73.800746 L252.953178,72.800747 C249.152379,68.9007507 244.751454,65.6007539 240.050466,62.8007567 C230.95522,57.5207618 220.616849,54.630888 210.063853,54.5050566 L209.34401,54.5007647 L0,54.5 L0,0.9 L209.34401,0.90081669 Z" id="Combined-Shape-Copy" transform="translate(228.297995, 421.950000) scale(-1, 1) translate(-228.297995, -421.950000) "></path>
            </g>
        </g>
    </g>
</svg>
