<?xml version="1.0" encoding="UTF-8"?>
<svg width="16px" height="19px" viewBox="0 0 16 19" version="1.1" xmlns="http://www.w3.org/2000/svg" xmlns:xlink="http://www.w3.org/1999/xlink">
    <title>plug-svgrepo-com</title>
    <defs>
        <path d="M11.3899159,0.129918716 L27.0959508,3.18286264 C30.8909149,3.92052893 33.3693444,7.59495183 32.6316781,11.3899159 L29.5787342,27.0959508 C28.8410679,30.8909149 25.166645,33.3693444 21.371681,32.6316781 L18.384,32.05 L15.843961,36.3807984 L12.555,30.917 L5.66564603,29.5787342 C1.87068197,28.8410679 -0.607747572,25.166645 0.129918716,21.371681 L3.18286264,5.66564603 C3.92052893,1.87068197 7.59495183,-0.607747572 11.3899159,0.129918716 Z" id="path-1"></path>
        <filter x="-90.0%" y="-67.3%" width="280.1%" height="262.2%" filterUnits="objectBoundingBox" id="filter-2">
            <feOffset dx="0" dy="5" in="SourceAlpha" result="shadowOffsetOuter1"></feOffset>
            <feGaussianBlur stdDeviation="9" in="shadowOffsetOuter1" result="shadowBlurOuter1"></feGaussianBlur>
            <feColorMatrix values="0 0 0 0 0   0 0 0 0 0   0 0 0 0 0  0 0 0 0.563367297 0" type="matrix" in="shadowBlurOuter1"></feColorMatrix>
        </filter>
    </defs>
    <g id="Design" stroke="none" stroke-width="1" fill="none" fill-rule="evenodd">
        <g id="Home-screen" transform="translate(-70.000000, -564.000000)">
            <g id="Maps" transform="translate(-282.000000, 60.000000)">
                <rect id="Background-Maps" fill="#F0F4F7" x="282" y="0" width="375" height="810"></rect>
                <path d="M26.8460218,744.664186 L14.4968517,807.43487 L0.268460218,805.020613 L0.268460218,816.555397 L156.243847,843.916977 L0.268460218,850.354996 L0.268460218,861.621529 L52.8866629,859.475522 L53.6920435,888.178357 L0.268460218,891.129115 L0.268460218,896.762382 L53.6920435,893.811623 L54.7658844,936.731749 L66.0412135,936.731749 L64.9673726,901.322645 L83.7595879,898.640137 L82.685747,936.731749 L88.3234116,936.731749 L89.3972524,897.835385 L125.907842,892.73862 L151.411563,915.808188 L137.988552,937 L144.700057,937 L155.706926,919.563699 L174.767602,937 L183.089868,937 L133.156268,891.665617 C147.116199,889.25136 182.284488,883.349843 197.0498,880.667335 L187.385232,937 L198.660561,937 L203.492845,908.833667 L245.372639,915.539937 C243.761878,923.050959 242.419576,930.29373 240.808815,937 L252.352604,937 L255.574127,920.904953 L275.977104,937 L294.232398,937 L259.06411,908.028915 L266.580996,871.546808 L376.112765,887.105354 L367.253578,936.463498 L386.314253,936.463498 L387.119634,931.366733 L422.556382,936.463498 L499.604465,936.463498 L460.677733,930.830232 L473.295363,878.521328 C487.255295,881.203836 523.765884,888.178357 537.725816,890.860865 L529.135089,936.731749 L540.678878,936.731749 L546.316543,907.224163 L673.298226,930.561981 L672.224385,936.731749 L691.28506,936.731749 L694.238122,921.441454 L722.963366,925.465216 L725.379508,936.731749 L731.017172,936.731749 L728.869491,926.269969 L791.957642,935.390495 L791.689181,936.731749 L932.899256,936.731749 L909.543217,933.51274 L907.395535,898.371887 L937.46308,896.762382 L937.46308,891.129115 L906.858615,892.73862 L904.979393,862.962783 L937.46308,861.621529 L937.46308,850.354996 L904.442473,851.69625 L902.026331,810.385628 L937.73154,816.555397 L937.73154,805.020613 L903.100172,798.850845 L919.744705,736.616662 L937.73154,739.835671 L937.73154,720.789865 L903.368632,714.351847 L896.120206,671.431721 L937.73154,666.334956 L937.73154,655.068423 L894.240985,660.433438 L887.261019,618.586315 L924.040069,600.613513 C927.261591,611.343544 932.362335,629.316347 938,648.630404 L938,608.392786 L934.241557,595.516748 L938,593.638992 L938,572.715431 L929.140813,577.007443 C927.261591,570.569425 924.845449,561.717149 922.429307,553.133123 C926.18775,551.791869 931.825415,549.914114 938,547.768108 L938,541.86659 L920.818546,547.768108 C917.865484,537.306327 915.449342,527.917549 914.375501,524.430289 L922.697768,497.33696 L938,498.946464 L938,493.313198 L924.576989,491.703693 L935.315398,457.099342 L938,458.172345 L938,446.101059 L925.65083,441.540796 L938,412.033209 L938,401.571429 L914.375501,392.450902 L929.140813,350.067277 C932.093875,351.945033 935.046938,353.554538 938,355.164042 L938,342.019754 C927.261591,335.849986 916.791643,328.875465 907.395535,321.364443 L938,316.267678 L938,305.001145 L929.409273,306.342399 L912.496279,278.176066 L937.73154,263.154022 L937.73154,256.716003 L878.401832,291.588606 C877.864911,290.783853 877.327991,289.979101 876.79107,289.174349 C869.542645,277.907816 864.17344,263.422273 860.146537,246.790724 L937.73154,252.423991 L937.73154,246.790724 L858.804236,241.157458 C857.461935,234.98769 856.388094,228.549671 855.314253,222.111652 L937.73154,215.941884 L937.73154,205.211852 L909.811677,207.357859 L918.133944,139.75866 L937.73154,139.222159 L937.73154,127.955626 L919.476245,128.492127 L921.355467,112.933581 L937.73154,96.3020326 L937.73154,88.254509 L922.429307,103.813055 L929.409273,46.9438878 L937.73154,48.0168909 L937.73154,42.3836244 L929.946193,41.3106212 L932.630796,18.7775551 L937.73154,19.5823075 L937.73154,0.536501575 L933.167716,0 L791.957642,0 L783.098454,48.5533925 L743.097882,56.8691669 L731.285633,1.52482919e-13 L725.647968,1.52482919e-13 L729.137951,17.1680504 L687.526617,22.5330661 L691.821981,1.52482919e-13 L672.761305,1.52482919e-13 L668.197481,24.6790724 L540.410418,5.90151732 L541.484259,1.52482919e-13 L529.940469,1.52482919e-13 L529.135089,4.2920126 L500.409845,1.52482919e-13 L423.361763,1.52482919e-13 L527.255867,15.2902949 L517.322839,68.1357 L377.455066,54.186659 L387.119634,1.52482919e-13 L368.058958,1.52482919e-13 L359.199771,49.6263956 L295.84316,1.52482919e-13 L277.587865,1.52482919e-13 L340.407556,49.3581449 L246.178019,35.9456055 L253.694906,1.52482919e-13 L242.151116,1.52482919e-13 C239.198054,14.4855425 236.513452,26.5568279 235.171151,34.3361008 L195.170578,28.7028342 L200.002862,0.268250787 L188.727533,0.268250787 L188.190612,3.75551102 L184.432169,0.268250787 L176.109903,0.268250787 L187.116772,10.1935299 L184.163709,27.0933295 L133.424728,19.8505583 L145.773898,0.268250787 L139.062393,0.268250787 L127.250143,19.0458059 L89.1287922,13.6807902 L89.3972524,0.536501575 L83.7595879,0.536501575 L83.4911276,12.8760378 L67.3835146,10.4617807 L67.1150544,0.268250787 L55.8397252,0.268250787 L56.1081855,8.85227598 L1.07384087,1.07300315 L1.07384087,20.118809 L55.0343446,27.8980819 L52.0812822,49.3581449 L0.805380653,42.920126 L0.805380653,48.5533925 L35.9736691,52.8454051 L0.805380653,88.5227598 L0.805380653,96.5702834 L42.9536348,53.6501575 L51.2759015,54.7231606 L41.6113337,127.419124 L0.805380653,128.492127 L0.805380653,139.75866 L39.463652,138.149155 L30.872925,202.797595 L0.268460218,204.943601 L0.268460218,216.210135 L16.1076131,215.137131 L21.7452776,248.66848 L0.268460218,247.058975 L0.268460218,252.692242 L6.71150544,253.228743 L0.268460218,256.984254 L0.268460218,263.422273 L16.6445335,253.765245 L22.8191185,254.301746 L30.6044648,300.172631 L0.268460218,305.269396 L0.268460218,316.535929 L95.3033772,300.709133 L89.1287922,380.647867 C62.2827705,371.795591 29.2621637,358.919553 0,342.019754 L0,355.164042 C12.34917,362.138563 25.2352604,368.308331 38.1213509,373.673347 L23.8929594,410.960206 L0,401.571429 L0,412.033209 L1.61076131,408.277698 L49.39668,427.055253 L41.3428735,461.391354 L1.52601966e-13,446.36931 L1.52601966e-13,458.440595 L78.3903835,486.875179 L80.5380653,502.433725 L0.268460218,493.581449 L0.268460218,499.214715 L32.4836863,502.701975 L39.463652,528.1858 L0.268460218,541.86659 L0.268460218,547.768108 C15.0337722,542.403092 33.8259874,535.965073 40.8059531,533.550816 L45.638237,550.718866 L0.268460218,572.983682 L0.268460218,593.907243 L19.8660561,584.250215 L42.9536348,658.823934 L13.6914711,654.531921 L0.268460218,608.392786 L0.268460218,648.630404 C0.805380653,650.77641 1.34230109,652.654165 2.14768174,654.800172 L0.268460218,655.068423 L0.268460218,666.334956 L5.36920435,665.798454 C12.0807098,688.599771 18.523755,711.401088 22.5506583,724.813627 L0.268460218,720.789865 L0.268460218,739.835671 L26.8460218,744.664186 L26.8460218,744.664186 Z M76,734.756098 L84.1081081,676 L126,681.902439 L115.459459,742 L76,734.756098 L76,734.756098 Z M148.88,608 L172,612.068826 L160.032,675 L138,671.744939 L148.88,608 L148.88,608 Z M127.131868,670 L109,667.625767 L115.043956,627 L134,630.957055 L127.131868,670 L127.131868,670 Z M149,462 L149.815217,435 L174,439.194175 L162.586957,462 C160.413043,461.737864 158.23913,461.475728 155.793478,461.475728 C153.619565,461.475728 151.173913,461.737864 149,462 L149,462 Z M129.920635,471.176471 C128.031746,472.784314 126.412698,474.392157 124.793651,476 L97,454.830065 L131,435 L129.920635,471.176471 L129.920635,471.176471 Z M180,468.546185 L205.782857,415 L227,473.120482 L192.085714,482 C189.131429,476.618474 185.102857,472.044177 180,468.546185 L180,468.546185 Z M238.64557,99 L253.797468,105.953488 L274,191 L232,178.965116 L238.64557,99 L238.64557,99 Z M220.811966,178 L191,172.272727 L196.470085,151 L223,152.636364 L220.811966,178 L220.811966,178 Z M841,58.9598394 C839.669725,78.064257 838.33945,100.128514 838.073394,123 L832.486239,122.730924 L812,56 L841,58.9598394 L841,58.9598394 Z M854.563758,35 L890,41.4761905 L882.214765,103 C875.503356,102.460317 858.85906,100.571429 850,99.7619048 C851.073826,74.9365079 852.95302,52.5396825 854.563758,35 L854.563758,35 Z M779,180.714286 L713.747292,188 C711.851986,171.269841 705.895307,120.809524 704,103 L772.501805,110.825397 L779,180.714286 L779,180.714286 Z M827,122 L786.3125,120.178862 L785,106.390244 L787.3625,93.6422764 L817.025,90 L827,122 L827,122 Z M708,188.302053 L684.395349,191 L673,99 L697.96124,101.967742 L708,188.302053 L708,188.302053 Z M714,573 L677.411168,562.392 L661,519.144 C678.48731,512.888 695.705584,507.72 705.928934,505 L714,573 L714,573 Z M749.029412,514 L753,546.294118 L729.970588,550 L726,516.647059 L749.029412,514 L749.029412,514 Z M511,677.024876 L520.377358,638 L582,657.512438 L575.569811,691 C564.316981,688.363184 536.720755,682.562189 511,677.024876 L511,677.024876 Z M574,695.941176 L566.319635,738 L516,683 L574,695.941176 L574,695.941176 Z M561.690265,323.861592 L568,388.072664 L539.19469,395 L537,318 L561.690265,323.861592 L561.690265,323.861592 Z M610,323 L589.355072,382.316017 L578.362319,385 L573,327.831169 L610,323 L610,323 Z M519.262295,618 L487,607.433962 L504.836066,562 L535,574.150943 L519.262295,618 L519.262295,618 Z M541.584906,575 L568,585.736842 C559.018868,601.573684 551.09434,616.873684 546.867925,626 L526,619.289474 L541.584906,575 L541.584906,575 Z M496,545.891892 L514.666667,524 L552,550.216216 L541.990338,564 L496,545.891892 L496,545.891892 Z M490.279412,544 L487.583333,542.925566 L483,488.398058 L519.666667,461 L538,488.12945 L490.279412,544 L490.279412,544 Z M480.571429,482 L454,436.350711 L495.87013,426 L516,455.725118 C509.290043,460.767773 488.08658,476.42654 480.571429,482 L480.571429,482 Z M524,455.866667 C526.953704,453.466667 532.592593,449.2 536.62037,446 L553,468.666667 L541.722222,482 L524,455.866667 L524,455.866667 Z M520.706897,452 L502,423.764706 L517.232759,420 L533,442.319328 L520.706897,452 L520.706897,452 Z M435,421 L449.505495,371 L483,408.771739 L435,421 L435,421 Z M451,365.470886 L470.009677,301 L531.590323,315.627848 L534,396.622785 L489.554839,408 L451,365.470886 L451,365.470886 Z M570,295.884615 L644.247423,287 L648,312.038462 L572.680412,322 L570,295.884615 L570,295.884615 Z M557.831325,296.305085 L560,318 L515,307.423729 L521.777108,286 L557.831325,296.305085 L557.831325,296.305085 Z M510.936416,306 L471,297.081967 L478.063584,274 L518,285.016393 L510.936416,306 L510.936416,306 Z M459.366569,301 L376,270.598985 L385.442815,248 L468,271.406091 L459.366569,301 L459.366569,301 Z M457,305.3875 L448.255814,334 L410,321.6625 C412.732558,313.525 417.651163,298.3 419.563953,292 L457,305.3875 L457,305.3875 Z M402,331.092025 C400.123711,336.631902 396.639175,346.392638 392.350515,358 L350,339.797546 L352.948454,315 L402,331.092025 L402,331.092025 Z M408.820896,332 L446,344.593301 L433.343284,388 L393,377.550239 L408.820896,332 L408.820896,332 Z M431,393.566502 L421.741071,424.995074 L370,438 L389.334821,383 L431,393.566502 L431,393.566502 Z M448.596154,437 L462,461.090226 L421,473 L428.621795,442.142857 L448.596154,437 L448.596154,437 Z M464.594697,467 L476.42803,487.589744 L481,540 L410,511.923077 L418.068182,480.102564 L464.594697,467 L464.594697,467 Z M441,535.717241 L432.852564,561 L400,551.855172 L407.358974,522 L441,535.717241 L441,535.717241 Z M448.297297,538 L501,559.131474 L482.351351,606 L431,589.474104 L448.297297,538 L448.297297,538 Z M428,606.676471 L419.576087,653 L353,614.088235 L375.282609,590 L428,606.676471 L428,606.676471 Z M444.19708,614 L514,636.25641 L504.675182,676 C486.291971,672.025641 469.773723,668.316239 461.781022,666.726496 L441,632.017094 L444.19708,614 L444.19708,614 Z M502,680.967033 L481.538462,698 L467,673 L502,680.967033 L502,680.967033 Z M556,628.887955 C565.507463,610.456583 588.325373,568.854342 605.167164,549.633053 C605.98209,548.843137 606.797015,547.789916 607.883582,547 L647,591.235294 L595.116418,641 L556,628.887955 L556,628.887955 Z M636,561.558824 L664.269231,547 L671,564.205882 L654.576923,583 L636,561.558824 L636,561.558824 Z M634,557 L619,539 C628.910714,532.454545 642.571429,526.181818 656.5,521 L664,541.181818 L634,557 L634,557 Z M598.378641,542.820513 C590.76699,551.299145 582.339806,564.017094 574.456311,577 L547,566.401709 L585.330097,515 L603,538.846154 C601.097087,539.905983 599.466019,541.495726 598.378641,542.820513 L598.378641,542.820513 Z M554.72766,546 L518,520.181818 L556.33617,475 L581,509.424242 L554.72766,546 L554.72766,546 Z M571,476.363636 L604.214286,466 L616,491.363636 L588.946429,502 L571,476.363636 L571,476.363636 Z M610,464.868852 L636.856383,457 L661,474.311475 L621.664894,489 L610,464.868852 L610,464.868852 Z M565.02623,467 L529,417.007905 L600.514754,399 L611,453.023715 L565.02623,467 L565.02623,467 Z M605,399.236559 L689.770833,378 L696,428.806452 L615.5625,453 L605,399.236559 L605,399.236559 Z M596,381 L616.44843,323.239316 L649.004484,319 L656,365.897436 L596,381 L596,381 Z M650,286.229236 L679.460432,283 L689,357.541528 L662.064748,364 L650,286.229236 L650,286.229236 Z M697,280.627451 L721,275 L717.266667,354.052288 L706.066667,357 L697,280.627451 L697,280.627451 Z M576,285 L637.737265,231.164251 L671.58445,229 L677,273.096618 L576,285 L576,285 Z M690,226.803468 L714.690265,223 C717.159292,238.213873 719.628319,255.32948 721,264.023121 L695.212389,270 L690,226.803468 L690,226.803468 Z M671,222.818182 L639.428571,225 L637,201 L668.571429,201.818182 L671,222.818182 L671,222.818182 Z M634,227.134615 L569.733333,283 L562,200 L631.866667,201.862179 C632.4,209.310897 633.466667,222.878205 634,227.134615 L634,227.134615 Z M558,284 L395,238.490272 L407.641914,216 L556.117162,263.626459 L558,284 L558,284 Z M374,244.769231 L350.111111,302 L331,295.641026 L356.481481,240 L374,244.769231 L374,244.769231 Z M374.393035,273 L415,288.242604 L405.771144,319 L362,303.757396 L374.393035,273 L374.393035,273 Z M348,312.284553 L345.032895,337 L307,331.276423 L325.611842,305 L348,312.284553 L348,312.284553 Z M346.683453,343.370909 L391,362.483636 C385.628297,377.614545 379.450839,394.869091 374.079137,410 L287.326139,393.276364 L279,372.04 L303.441247,337 L346.683453,343.370909 L346.683453,343.370909 Z M290,428.645161 L255.730159,438 L239,398.175115 L271.380952,380 L290,428.645161 L290,428.645161 Z M289,399 L371,415.22449 C367.794788,424.418367 365.123779,432.530612 362.986971,438.209184 L309.032573,452 L289,399 L289,399 Z M416,446 L400.154286,508 L378.937143,492.034335 L369,457.708155 L416,446 L416,446 Z M399,513.352113 L384.149171,573 L351,506.573944 L376.458564,496 L399,513.352113 L399,513.352113 Z M399.21831,558 L433,566.918919 L425.859155,588 L394,578 L399.21831,558 L399.21831,558 Z M369,587.991968 L320.61165,641 L313,636.963855 C318.165049,610.056225 322.786408,586.646586 325.23301,574 L369,587.991968 L369,587.991968 Z M347.729412,619 L417,660.351351 L411.858824,689 L325,643.864865 L347.729412,619 L347.729412,619 Z M410,693.782222 L408.390977,703 L303,685.106667 C305.681704,670.737778 308.631579,655.826667 311.313283,642 L410,693.782222 L410,693.782222 Z M339,698.489796 L327.796512,745 L292,739.321429 C294.732558,725.260204 298.011628,709.035714 301.290698,692 L339,698.489796 L339,698.489796 Z M287,704.378378 L281.176471,736 L224,721.945946 L229.029412,696 L287,704.378378 L287,704.378378 Z M281,741.888199 L275.3361,771 L216,760.31677 L222.473029,728 L281,741.888199 L281,741.888199 Z M292.627451,744 L328,749.6 L325.588235,780 L287,773.066667 C288.339869,766.133333 290.215686,756 292.627451,744 L292.627451,744 Z M333.412371,750 L357,753.769231 L352.71134,785 L331,780.961538 L333.412371,750 L333.412371,750 Z M362.344371,754 L399,759.85 L393.298013,793 L358,786.314286 L362.344371,754 L362.344371,754 Z M334,745.866667 L344.883636,700 L407,710.4 L398.770909,756 L334,745.866667 L334,745.866667 Z M438.447368,648 L472,704.229508 L421,746 L438.447368,648 L438.447368,648 Z M474.754237,710 L518,782.745509 L498.245763,799 L455,725.988024 L474.754237,710 L474.754237,710 Z M483,701.2 L506.815182,682 L565,743.333333 L527.112211,774 L483,701.2 L483,701.2 Z M606,746.298851 L611.896907,702 C620.206186,703.350575 627.979381,704.701149 632,705.241379 L623.42268,749 L606,746.298851 L606,746.298851 Z M600.092593,746 L577,742.282486 L585.324074,699 C590.425926,699.79661 598.212963,701.124294 606,702.451977 L600.092593,746 L600.092593,746 Z M586,693.751678 L592.196891,661 L638,675.496644 L632.880829,701 L586,693.751678 L586,693.751678 Z M609,646.065306 L655.253472,600 L686,636.097959 L670.760417,666 L609,646.065306 L609,646.065306 Z M660,587.562092 L676.746835,568 L714.759494,578.986928 L723,645.980392 C719.544304,646.784314 716.35443,648.392157 713.164557,650 L660,587.562092 L660,587.562092 Z M731,561.8125 L788.102128,553 L794,590.920455 L735.825532,600 L731,561.8125 L731,561.8125 Z M611.391892,532 L594,507.538462 L666.778378,479 L693,498.569231 C670.524324,505.092308 633.6,517.051282 611.391892,532 L611.391892,532 Z M643,454.849057 L697.191964,439 L704,493.943396 C702.638393,494.207547 701.004464,494.735849 699.370536,495 L643,454.849057 L643,454.849057 Z M716.113208,446 L714,428.32967 L762.603774,398 L770,446 L716.113208,446 L716.113208,446 Z M713.636842,422 L708,375 L759,393.531429 L713.636842,422 L713.636842,422 Z M717,365.91 L814,341 L795.191136,394 L717,365.91 L717,365.91 Z M723,353 L725.143396,309.536585 L790.516981,298 L794,334.756098 L723,353 L723,353 Z M725,303 L726.342975,273.717791 L786.77686,260 L790,291.920245 L725,303 L725,303 Z M725.119266,262 L719,222.693252 L742.944954,219 L748,256.98773 L725.119266,262 L725.119266,262 Z M689.454545,221 L687,202.53012 L711,200 C711.818182,204.048193 712.636364,210.373494 714,217.204819 L689.454545,221 L689.454545,221 Z M551.567164,198.628959 L557,257 L466,227.40724 L478.495522,197 L551.567164,198.628959 L551.567164,198.628959 Z M460.408696,226 L410,209.660714 L412.156522,196 L472,197.607143 L460.408696,226 L460.408696,226 Z M402.886792,206 L363,194 L405,194.979592 C404.207547,198.653061 403.415094,203.061224 402.886792,206 L402.886792,206 Z M401,213.6875 L388.182561,236 L303,212.1125 L311.811989,194 L342.787466,194.7875 L401,213.6875 L401,213.6875 Z M351,236.791667 L325.356164,293 L273,275.518939 L298.643836,222 L351,236.791667 L351,236.791667 Z M319,303.28 L275.125,367 L254,312.19 L266.729167,286 L319,303.28 L319,303.28 Z M236,310.457944 L212,360 L188,346.948598 L197.6,303 L236,310.457944 L236,310.457944 Z M249.097403,326 L268,375.527559 L236.051948,394 L227,372.314961 L249.097403,326 L249.097403,326 Z M250,439.856031 L223.486667,447 L209,408.898833 L223.76,379 L250,439.856031 L250,439.856031 Z M290.036364,435 L298,456.697183 L232.167273,474 L225,453.676056 L290.036364,435 L290.036364,435 Z M363.612245,460 L373,493.03719 L294.6793,525 L281,480.950413 L363.612245,460 L363.612245,460 Z M344.289406,510 L376,572 L272,539.004292 L344.289406,510 L344.289406,510 Z M313,571.683019 L302.936759,625 L246,614.818868 L258.181818,554 L313,571.683019 L313,571.683019 Z M232,623.649573 L219.874251,683 L187,678.495726 L217.179641,621 L232,623.649573 L232,623.649573 Z M243.51341,625 L302,635.173228 L290.574713,693 L231,684.700787 L243.51341,625 L243.51341,625 Z M219,694.818898 L206.108571,758 L172,751.84252 L184.354286,690 L219,694.818898 L219,694.818898 Z M143,765.015267 L139.488506,792 L96,783.717557 L99.2413793,757 L143,765.015267 L143,765.015267 Z M147.469925,768 L215,780.348993 L210.195489,808 L144,795.114094 L147.469925,768 L147.469925,768 Z M225.489796,782 L272,790.43956 C270.107143,799.142857 267.132653,813.384615 263.617347,830 L219,820.241758 L225.489796,782 L225.489796,782 Z M284.413534,792 L341,802.391003 L331.657895,869 L270,860.207612 L284.413534,792 L284.413534,792 Z M411,799.968254 L419.058252,754.634921 L450.485437,729 L494,802.936508 L480.569579,814 L411,799.968254 L411,799.968254 Z M475,822.972973 L463.669065,870 C450.44964,867.297297 416.456835,860.540541 400,857.297297 L408.363309,810 L475,822.972973 L475,822.972973 Z M495,817.268293 L562,762 L549.721116,828 L495,817.268293 L495,817.268293 Z M574.190323,753 L643,763.92515 L631.754839,842 L560,828.143713 L574.190323,753 L574.190323,753 Z M650.190955,796 L696,802.414747 L686.41206,854 L643,845.447005 L650.190955,796 L650.190955,796 Z M717,798.314286 L720.987342,778 L759,784.428571 L756.873418,805 L717,798.314286 L717,798.314286 Z M698.68254,798 C685.730159,796.079646 662.52381,792.787611 652,791.415929 L655.507937,767 L703,774.681416 L698.68254,798 L698.68254,798 Z M723,766.491713 L730.608696,726.447514 L733.054348,726.447514 C739.032609,726.447514 744.467391,725.121547 749.630435,723 L773,760.657459 L750.173913,771 L723,766.491713 L723,766.491713 Z M705.285256,763 L630,750.90625 L644.63141,677 L693.314103,692.85625 C695.442308,704.95 702.891026,715.43125 713,721.34375 L705.285256,763 L705.285256,763 Z M711,684.5 C711,672.03012 721.03012,662 733.5,662 C745.96988,662 756,672.03012 756,684.5 C756,696.96988 745.96988,707 733.5,707 C721.301205,707 711,696.96988 711,684.5 L711,684.5 Z M693.563107,673 L676,667.491803 L689.368932,641 L703,657 C698.805825,661.196721 695.398058,666.704918 693.563107,673 L693.563107,673 Z M741.888889,646.545852 L737,606.20524 L796.209877,597 L803,640.048035 L764.160494,659 C758.185185,652.772926 750.580247,648.170306 741.888889,646.545852 L741.888889,646.545852 Z M797,543.948127 L820.121429,541 L836,622.475504 L811.207143,634 L797,543.948127 L797,543.948127 Z M786,542.669173 L758.033613,547 L754,514.24812 L781.159664,511 L786,542.669173 L786,542.669173 Z M725.238298,512 L718,452 L772.689362,452 L781,505.542601 L725.238298,512 L725.238298,512 Z M785,454 L853,472.754717 L844.234375,496 L789.515625,482.528302 L785,454 L785,454 Z M783.488372,447.110672 L776,399 L868,432.596838 L854.895349,467 L783.488372,447.110672 L783.488372,447.110672 Z M800,396.513699 L809.759036,369 L845,378.616438 L832.53012,408 L800,396.513699 L800,396.513699 Z M811,363.104651 L819.712871,338.767442 L866,327 L846.668317,373 L811,363.104651 L811,363.104651 Z M806.212329,332 L799,254.521739 L823.842466,251 L838,323.87291 L806.212329,332 L806.212329,332 Z M754.169118,255 L749,217.308642 L782.463235,212 L786,247.833333 L754.169118,255 L754.169118,255 Z M744,212.181818 L719.7,216 L717,197.727273 L741.84,195 L744,212.181818 L744,212.181818 Z M747,194.818182 L781.636364,191 L783,206.545455 L749.181818,212 L747,194.818182 L747,194.818182 Z M667,191 L635.968254,190.192308 C635.15873,181.307692 633.539683,163.269231 633,156 L662.952381,157.076923 L667,191 L667,191 Z M481.882353,146 L457,144.925926 C457.264706,138.481481 457.794118,123.444444 458.058824,117 L484,118.074074 L481.882353,146 L481.882353,146 Z M496.890805,119 L542,146 L495,144.182692 L496.890805,119 L496.890805,119 Z M452.191304,143 L422,141.925926 C423.886957,132.796296 425.773913,123.12963 427.391304,114 L453,115.074074 L452.191304,143 L452.191304,143 Z M416.75,143 L380,138.412698 L387.35,109 L422,114.936508 L416.75,143 L416.75,143 Z M359,140.202899 L354.867347,157 L332,155.347826 L340.265306,138 L359,140.202899 L359,140.202899 Z M363.751196,140 L416,146.4 L413.320574,160 L360,156 L363.751196,140 L363.751196,140 Z M411,166.4 L407.525862,184 L318,181.6 L328.422414,160 L411,166.4 L411,166.4 Z M419.415493,148 L451,149.382979 C450.450704,156.851064 449.352113,177.042553 448.802817,187 L412,186.170213 C413.373239,178.148936 416.119718,164.042553 419.415493,148 L419.415493,148 Z M458.117647,150 L483,151.043478 L480.352941,186 L456,185.478261 L458.117647,150 L458.117647,150 Z M493.723214,150 L549.549107,152.244604 L552,189 L491,187.316547 L493.723214,150 L493.723214,150 Z M555,153 L576,153.81203 L574.97561,189 L557.304878,188.458647 L555,153 L555,153 Z M588.7875,154 L627.1125,155.61194 L630,190 L588,188.925373 L588.7875,154 L588.7875,154 Z M655.727273,100.141414 L662,151 L632,149.929293 L632.545455,98 L655.727273,100.141414 L655.727273,100.141414 Z M627.465753,150 L589,148.4 L590.60274,94 L628,97.7333333 L627.465753,150 L627.465753,150 Z M577.390244,148 L552.97561,146.933333 L524,129.066667 L571.219512,92 L579,92.8 L577.390244,148 L577.390244,148 Z M518.060976,127 L496,113.688312 L497.906504,86 L563,92.3896104 L518.060976,127 L518.060976,127 Z M485.146119,110 L429,107.398374 C431.383562,95.4308943 433.502283,85.0243902 434.826484,78 L487,83.203252 L485.146119,110 L485.146119,110 Z M593,75.5555556 L596.190476,53 L660,64.2777778 L656.809524,82 L593,75.5555556 L593,75.5555556 Z M430,77.8666667 L424.015326,108 L359,97.3333333 L371.51341,72 L430,77.8666667 L430,77.8666667 Z M380,107.08 L372.253425,137 L341,133.192 L355.424658,103 L380,107.08 L380,107.08 Z M321,135.314815 L291.272727,196 L281.454545,193.314815 L261,109 L321,135.314815 L321,135.314815 Z M290,201.140351 L275.545455,231 L230,217.818713 L232.727273,185 L290,201.140351 L290,201.140351 Z M270,241.633508 L257.615385,267 L179,248.308901 L182.5,216 L270,241.633508 L270,241.633508 Z M167.829268,286 L154,283.326389 L156.04878,209 L175,214.881944 L167.829268,286 L167.829268,286 Z M177.533557,255 L255,273.292398 L241.409396,301 L174,288.087719 L177.533557,255 L177.533557,255 Z M191,302.25 L173.818792,382 L151,379.046296 L153.416107,295 L191,302.25 L191,302.25 Z M185.545455,354 L209,366.348993 L195.363636,394 L179,384.067114 L185.545455,354 L185.545455,354 Z M176.216049,386.98913 L194,398.130435 L177.012346,434 L151,429.380435 L152.32716,384 L176.216049,386.98913 L176.216049,386.98913 Z M178,503.5 C178,515.96988 167.96988,526 155.5,526 C143.03012,526 133,515.96988 133,503.5 C133,491.03012 143.03012,481 155.5,481 C167.96988,481 178,491.03012 178,503.5 L178,503.5 Z M194,513.892157 C195.074286,510.387255 195.611429,506.612745 195.611429,502.568627 L195.611429,500.95098 L274.034286,481 L288,526.02451 L263.022857,536 L194,513.892157 L194,513.892157 Z M247,548.765472 L234.417323,611 L228.795276,609.931596 L179,534.34202 C181.141732,532.739414 183.283465,530.869707 185.15748,529 L247,548.765472 L247,548.765472 Z M221,610 L150,597.501873 L159.342105,543.520599 C164.680451,542.988764 169.75188,541.393258 174.289474,539 L221,610 L221,610 Z M135.010204,625 L116,620.665025 L123.438776,570 L143,579.753695 L135.010204,625 L135.010204,625 Z M176.885057,614 L212,620.20332 L181.747126,679 L165,676.572614 L176.885057,614 L176.885057,614 Z M124,742.714286 L134.328205,682 L177,687.936508 L164.769231,750 L124,742.714286 L124,742.714286 Z M32,772.411765 L37.1121076,747 L92,756.794118 L88.7713004,783 L32,772.411765 L32,772.411765 Z M26,809.066225 L31.0780781,783 L115,799.562914 L109.654655,824 L26,809.066225 L26,809.066225 Z M116,824.324324 L121.360231,800 L209,817.297297 L205.247839,840 L116,824.324324 L116,824.324324 Z M66.0566038,896 L65,858.106383 L88.7735849,857 L121,887.702128 C108.320755,889.638298 78.7358491,894.06383 66.0566038,896 L66.0566038,896 Z M128.317259,886 L96,856.387097 L203,852 L199.469543,873.66129 L128.317259,886 L128.317259,886 Z M247.933649,905 L206,898.321918 L218.208531,827 L262,836.883562 C257.753555,857.986301 252.7109,882.294521 247.933649,905 L247.933649,905 Z M337,870.154982 L346.275,804 L390,811.97048 L378.605,876 L337,870.154982 L337,870.154982 Z M394,891.603175 L399.155039,863 L429,868.936508 L423.302326,897 L394,891.603175 L394,891.603175 Z M390,919.68 L393.902439,897 L422,902.4 L417.837398,924 L390,919.68 L390,919.68 Z M449.089655,928 L423,924.258065 L434.027586,870 L462,875.612903 L449.089655,928 L449.089655,928 Z M475,870.817352 L486.272059,825 L548,836.917808 L539.143382,883 L475,870.817352 L475,870.817352 Z M548,901.515267 L559.43038,840 L611,850.29771 L599.037975,911 L548,901.515267 L548,901.515267 Z M903,932 L858,925.574803 L858.535714,900.409449 L901.125,898 L903,932 L903,932 Z M847,900.266667 L846.732733,924 L758,911.2 L758,892 L847,900.266667 L847,900.266667 Z M754,890.636364 L754,910 L698,902.090909 L700.990291,886 L754,890.636364 L754,890.636364 Z M702,881.486486 L703.897436,870.945946 L850,865 L849.457875,895 L702,881.486486 L702,881.486486 Z M901,892.6 L860,895 L860.522293,864.6 L899.171975,863 L901,892.6 L901,892.6 Z M687,864.419118 L675.633663,924 L605,911.117647 L617.178218,851 L687,864.419118 L687,864.419118 Z M706,859 L716.253968,804 C728.396825,806.178218 749.714286,809.717822 757,811.079208 L752.142857,857.094059 L706,859 L706,859 Z M758,858 L765.636364,787 L796.454545,792.358491 L797,856.660377 L758,858 L758,858 Z M895.371795,808.978947 L898,851.389474 L857,853 L857.525641,802 L895.371795,808.978947 L895.371795,808.978947 Z M852,800.846809 L851.463158,852.855319 L801.536842,855 L801,792 L852,800.846809 L852,800.846809 Z M913,734.614786 L896.365854,796 L858,789.385214 L876.243902,728 L913,734.614786 L913,734.614786 Z M852.575916,790 L769,775.301724 L871,728 L852.575916,790 L852.575916,790 Z M853,723.920635 L777.964578,759 L755,720.412698 C760.073569,717.174603 764.346049,713.126984 767.817439,708 L853,723.920635 L853,723.920635 Z M897,713 L774,690.37013 C774.267391,689.038961 774.267391,687.707792 774.267391,686.376623 L890.047826,672 L897,713 L897,713 Z M889,660.569307 L773.268519,675 C773.268519,674.727723 773,674.455446 773,674.183168 L882.018519,620 L889,660.569307 L889,660.569307 Z M918,582.2 L841.916667,620 L835,582.73617 L911.083333,557 L918,582.2 L918,582.2 Z M909,552.068966 C893.254019,557.471264 845.482315,573.678161 832.938907,578 L826,540.724138 L903.128617,531 L909,552.068966 L909,552.068966 Z M796.794872,533 L790,490 L843,502.585366 L832.671795,528.542683 L796.794872,533 L796.794872,533 Z M839,527 L858.915254,474 L886,486.375635 L872.988701,522.426396 L839,527 L839,527 Z M912,494.032258 L904.595041,518.709677 L880,522 L891.900826,488 L912,494.032258 L912,494.032258 Z M924,453.423645 L912.835443,490 L890.506329,483.226601 L861,469.679803 L874.025316,435 L924,453.423645 L924,453.423645 Z M935,407.147436 L920.968254,440 L901,432.903846 L913.142857,399 L935,407.147436 L935,407.147436 Z M901,395.241758 L889.352941,429 L838,410.274725 L850.176471,381 L901,395.241758 L901,395.241758 Z M918,345.114625 L902.330645,390 L851,375.754941 L871.802419,326.300395 L888.012097,322 C896.927419,330.600791 907.193548,338.126482 918,345.114625 L918,345.114625 Z M907.292208,282 L923,308.417391 L896.11039,313 C890.785714,307.878261 885.993506,302.756522 882,297.365217 L907.292208,282 L907.292208,282 Z M867.204188,296.641304 C871.015707,302.347826 875.371728,307.782609 880,313.217391 L842.429319,323 L828,250.717391 L848.146597,248 C852.774869,266.75 858.764398,283.597826 867.204188,296.641304 L867.204188,296.641304 Z M846,241.078498 L797.132075,248 L790,173.726962 L837.811321,170 C838.867925,195.023891 841.509434,219.249147 846,241.078498 L846,241.078498 Z M897.811321,207.796992 L853.962264,211 C851.320755,188.845865 850.264151,164.823308 850,141.334586 L906,140 L897.811321,207.796992 L897.811321,207.796992 Z M838,164.26087 L789.035533,168 L785,125 L837.730964,127.136646 C837.461929,139.42236 837.730964,151.708075 838,164.26087 L838,164.26087 Z M910,110.486842 L907.87234,128.447368 L885,129 L887.659574,108 C892.446809,108.552632 903.351064,109.657895 910,110.486842 L910,110.486842 Z M879.333333,130.193548 L850,131 C850,122.397849 850.266667,114.064516 850.533333,106 L882,109.225806 L879.333333,130.193548 L879.333333,130.193548 Z M921,18.4868805 L910.032258,107 L887,104.317784 L898.516129,15 L921,18.4868805 L921,18.4868805 Z M894,13.9326923 L891.020833,36 L855,29.7692308 C855.8125,21.2019231 856.625,13.9326923 857.166667,9 L894,13.9326923 L894,13.9326923 Z M794,48.3794872 L802.621762,0 L846,6.25128205 C844.92228,16.0358974 843.036269,32.3435897 841.419689,53 L794,48.3794872 L794,48.3794872 Z M806.349515,54.0967742 L815,83.4354839 L788,87 L794.029126,53 L806.349515,54.0967742 L806.349515,54.0967742 Z M782,55 L773.686717,100 L675,88.6826347 L677.145363,76.8263473 L782,55 L782,55 Z M730.363636,24 L738,58.8539326 L678,71 L685.909091,29.8089888 L730.363636,24 L730.363636,24 Z M536.8,17 L666,35.2802548 L661.657143,58 L533,36.3248408 L536.8,17 L536.8,17 Z M533.077586,44 L590,53.6260163 L586.793103,76 L528,70.2764228 L533.077586,44 L533.077586,44 Z M352,70.481203 L325.076923,126 L240,88.3646617 L242.961538,55 L352,70.481203 L352,70.481203 Z M231,53.1595442 L223.447368,141 L197.282895,139.393162 L190,47 L231,53.1595442 L231,53.1595442 Z M193,139 L158,137.11828 L158.546875,114 L190.8125,114 L193,139 L193,139 Z M185.189655,45.5020408 L190,108 L159,108 L160.87069,42 L185.189655,45.5020408 L185.189655,45.5020408 Z M58,80.1067961 L64.7264574,29 L118,36.6116505 L111.273543,85 L58,80.1067961 L58,80.1067961 Z M123.793478,38 L142,40.7027027 L140.641304,88 L117,85.8378378 L123.793478,38 L123.793478,38 Z M56,101.285714 L58.4347826,83 L112,88.1428571 L109.565217,107 L56,101.285714 L56,101.285714 Z M114,109.236842 L116.479592,91 L141,93.2105263 L140.44898,112 L114,109.236842 L114,109.236842 Z M52,133.181818 L54.6794258,113 L108,118.454545 L106.92823,137 L52,133.181818 L52,133.181818 Z M113.543103,119 L140,121.680412 L137.862069,194.85567 L109,197 L113.543103,119 L113.543103,119 Z M50.7029289,139 L107,142.721519 L103.736402,197.481013 L42,202 L50.7029289,139 L50.7029289,139 Z M156,196.829268 L157.346154,148 L191,149.878049 L177.538462,203 L156,196.829268 L156,196.829268 Z M189.57554,176 L221,182.042254 L218.194245,215 L182,204.56338 L189.57554,176 L189.57554,176 Z M138,206 L135.811321,283.738255 L115.839623,287 L109,208.174497 L138,206 L138,206 Z M104.035714,209 L111,287.180645 L81.1928571,292 L72,211.409677 L104.035714,209 L104.035714,209 Z M23,214.935583 L62.2486188,212 L71,293.395706 L37.320442,299 L23,214.935583 L23,214.935583 Z M102.174497,298.634146 L136,293 L133.315436,392 C124.724832,389.853659 111.57047,386.365854 96,381.268293 L102.174497,298.634146 L102.174497,298.634146 Z M30,414.56213 L44.2869565,377 C49.9478261,379.449704 55.3391304,381.627219 61,383.532544 L51.8347826,423 L30,414.56213 L30,414.56213 Z M71.4486692,386 C98.1749049,395.479167 121.121673,401.708333 133,404.416667 L132.460076,427.979167 L93.3155894,451 L62,427.166667 L71.4486692,386 L71.4486692,386 Z M52,465.898734 L59.6176471,434 L89,455.797468 L80.5661765,476 L52,465.898734 L52,465.898734 Z M84,478.20354 L91.7910448,459 L120,480.946903 C118.119403,483.690265 116.776119,486.707965 115.701493,490 L84,478.20354 L84,478.20354 Z M85,490 L114.884298,501.081081 L114.884298,503.783784 C114.884298,508.378378 115.677686,512.702703 117,516.756757 L90.2892562,530 L85,490 L85,490 Z M37,503 L80.7209302,507.850299 L84,531.293413 L49.5697674,548 L37,503 L37,503 Z M92,548.093168 L126.603774,531 C132.415094,536.875776 139.811321,540.881988 148,542.217391 L142.716981,574 L92,548.093168 L92,548.093168 Z M25,580.887324 L44.6880734,571 L54,604.507042 L33.5137615,610 L25,580.887324 L25,580.887324 Z M48.9090909,659.02551 L35,614.408163 L55.7272727,609 L71,662 L48.9090909,659.02551 L48.9090909,659.02551 Z M82.6738197,665.032558 L55,566.837209 L84.8025751,552 L117,568.725581 L102.896996,668 L82.6738197,665.032558 L82.6738197,665.032558 Z M17,667 L72,674.748092 L68.2439024,702 L25.3170732,695.587786 L17,667 L17,667 Z M34.602649,726.25641 L27,700 L68,706.290598 L64.4701987,732 L34.602649,726.25641 L34.602649,726.25641 Z" id="Map-Shape" fill="#FFFFFF"></path>
            </g>
            <g id="Available-Chargers-Copy" transform="translate(62.000000, 220.000000)">
                <g id="Available-Charger" transform="translate(0.000000, 337.000000)">
                    <g id="Combined-Shape">
                        <use fill="black" fill-opacity="1" filter="url(#filter-2)" xlink:href="#path-1"></use>
                        <use fill="#FFFFFF" fill-rule="evenodd" xlink:href="#path-1"></use>
                    </g>
                    <g id="plug-svgrepo-com" transform="translate(8.000000, 7.000000)" fill="#2B3247" fill-rule="nonzero">
                        <path d="M16,4.75 C16,4.09420312 15.4882857,3.5625 14.8571429,3.5625 L14.2857143,3.5625 L14.2857143,1.1875 C14.2857143,0.531703125 13.774,0 13.1428571,0 C12.5117143,0 12,0.531703125 12,1.1875 L12,3.5625 L9.71428571,3.5625 L9.71428571,1.1875 C9.71428571,0.531703125 9.20257143,0 8.57142857,0 C7.94028571,0 7.42857143,0.531703125 7.42857143,1.1875 L7.42857143,3.5625 L6.85714286,3.5625 C6.226,3.5625 5.71428571,4.09420312 5.71428571,4.75 C5.71428571,5.32419336 6.10667857,5.80312695 6.628,5.91345313 L8.07282143,9.91692383 C8.23996429,10.3804941 8.66657143,10.6875 9.14285714,10.6875 L9.71428571,10.6875 L9.71428571,14.25 C9.71428571,15.5595527 8.68889286,16.625 7.42857143,16.625 C6.16825,16.625 5.14285714,15.5595527 5.14285714,14.25 C5.14285714,11.9581992 3.3485,10.09375 1.14285714,10.09375 C0.511714286,10.09375 0,10.6254531 0,11.28125 C0,11.9370469 0.511714286,12.46875 1.14285714,12.46875 C2.08817857,12.46875 2.85714286,13.267752 2.85714286,14.25 C2.85714286,16.8691055 4.90792857,19 7.42857143,19 C9.94921429,19 12,16.8691055 12,14.25 L12,10.6875 L12.5714286,10.6875 C13.0477143,10.6875 13.4743214,10.3804941 13.6414643,9.91688672 L15.0862857,5.91341602 C15.6076071,5.80312695 16,5.32419336 16,4.75 Z" id="Path"></path>
                    </g>
                </g>
            </g>
        </g>
    </g>
</svg>