<?xml version="1.0" encoding="UTF-8"?>
<svg width="22px" height="23px" viewBox="0 0 22 23" version="1.1" xmlns="http://www.w3.org/2000/svg" xmlns:xlink="http://www.w3.org/1999/xlink">
    <g id="Design" stroke="none" stroke-width="1" fill="none" fill-rule="evenodd">
        <g id="Home-screen-Menu" transform="translate(-32.000000, -272.000000)" fill="#2B3247" fill-rule="nonzero" stroke="#2B3247" stroke-width="0.5">
            <g id="Group-7" transform="translate(31.000000, 273.000000)">
                <g id="Group-6" transform="translate(2.000000, 0.000000)">
                    <g id="2575914---business-contact-location-map-office-us-work">
                        <path d="M0.125470514,20.9459459 C0.17565872,20.972973 0.225846926,21 0.276035132,21 C0.301129235,21 0.326223338,21 0.376411543,20.972973 L5.89711418,18.6216216 L14.1028858,20.972973 L14.1781681,20.972973 C14.2032622,20.972973 14.2283563,20.972973 14.2534504,20.9459459 L19.8494354,18.5675676 C19.9498118,18.5135135 20,18.4324324 20,18.3243243 L20,6.27027027 C20,6.18918919 19.9498118,6.10810811 19.8996236,6.05405405 C19.8243413,6 19.749059,6 19.6737767,6.02702703 L14.153074,8.37837838 L13.425345,8.16216216 C13.2998745,8.13513514 13.1493099,8.21621622 13.1242158,8.35135135 C13.0991217,8.48648649 13.174404,8.64864865 13.2998745,8.67567568 L13.902133,8.83783784 L13.902133,20.3513514 L6.1229611,18.1081081 L6.1229611,6.62162162 L6.47427854,6.72972973 C6.59974906,6.75675676 6.75031368,6.67567568 6.77540778,6.54054054 C6.80050188,6.40540541 6.72521957,6.24324324 6.59974906,6.21621622 L5.92220828,6 L5.77164366,6 L5.74654956,6 L0.150564617,8.37837838 C0.0501882058,8.43243243 0,8.51351351 0,8.62162162 L0,20.7027027 C0.0250941029,20.8108108 0.0501882058,20.8918919 0.125470514,20.9459459 L0.125470514,20.9459459 Z M19.4981179,18.1621622 L14.4040151,20.3243243 L14.4040151,8.83783784 L19.4981179,6.67567568 L19.4981179,18.1621622 Z M0.526976161,8.83783784 L5.62107905,6.67567568 L5.62107905,18.1621622 L0.526976161,20.3243243 L0.526976161,8.83783784 Z" id="Shape"></path>
                        <path d="M6,4.15920398 C6,4.40547264 6.02631579,4.65174129 6.07894737,4.95273632 C6.10526316,5.11691542 6.13157895,5.25373134 6.18421053,5.39054726 C6.76315789,7.44278607 8.78947368,9.85074627 9.65789474,10.8084577 L9.71052632,10.8631841 C9.78947368,10.9452736 9.89473684,11 10,11 C10.1052632,11 10.2105263,10.9452736 10.2894737,10.8631841 C10.3157895,10.8358209 13.1052632,7.82587065 13.7894737,5.39054726 C13.8421053,5.25373134 13.8684211,5.14427861 13.8947368,5.00746269 L13.9210526,4.92537313 C13.9736842,4.62437811 14,4.37810945 14,4.1318408 C14,1.86069652 12.2105263,0 10.0263158,0 C7.84210526,0 6,1.8880597 6,4.15920398 L6,4.15920398 Z M13.4210526,4.15920398 C13.4210526,4.37810945 13.3947368,4.59701493 13.3684211,4.84328358 L13.3421053,4.89800995 L13.2631579,5.22636816 C12.6842105,7.27860697 10.4473684,9.85074627 9.97368421,10.39801 C9.13157895,9.44029851 7.21052632,7.14179104 6.68421053,5.22636816 C6.65789474,5.11691542 6.63157895,4.9800995 6.60526316,4.84328358 C6.55263158,4.56965174 6.52631579,4.35074627 6.52631579,4.1318408 C6.52631579,2.16169154 8.07894737,0.547263682 9.97368421,0.547263682 C11.8684211,0.547263682 13.4210526,2.18905473 13.4210526,4.15920398 L13.4210526,4.15920398 Z" id="Shape"></path>
                        <path d="M8,4 C8,5.11111111 8.88888889,6 10,6 C11.1111111,6 12,5.11111111 12,4 C12,2.88888889 11.1111111,2 10,2 C8.88888889,2 8,2.91666667 8,4 Z M11.4444444,4 C11.4444444,4.80555556 10.8055556,5.44444444 10,5.44444444 C9.19444444,5.44444444 8.55555556,4.80555556 8.55555556,4 C8.55555556,3.19444444 9.19444444,2.55555556 10,2.55555556 C10.8055556,2.55555556 11.4444444,3.22222222 11.4444444,4 Z" id="Shape"></path>
                    </g>
                </g>
            </g>
        </g>
    </g>
</svg>
