<?xml version="1.0" encoding="UTF-8"?>
<svg width="21px" height="21px" viewBox="0 0 21 21" version="1.1" xmlns="http://www.w3.org/2000/svg" xmlns:xlink="http://www.w3.org/1999/xlink">
    <title>2398140---app-clock-mobile-open-line-schedule-time-ui</title>
    <g id="Design" stroke="none" stroke-width="1" fill="none" fill-rule="evenodd">
        <g id="Home-screen-Menu" transform="translate(-31.000000, -315.000000)" fill="#2B3247" fill-rule="nonzero">
            <g id="Group-7" transform="translate(31.000000, 273.000000)">
                <g id="Group" transform="translate(0.000000, 42.000000)">
                    <g id="2398140---app-clock-mobile-open-line-schedule-time-ui">
                        <path d="M20.7941899,8.88845516 C20.6612642,8.23948545 20.4644056,7.60525985 20.2064926,6.99505254 C19.9523855,6.39555042 19.6409226,5.8219931 19.2764455,5.28237548 C19.0779526,4.98881087 18.678961,4.91167215 18.3852726,5.11008134 C18.0915842,5.30849052 18.014413,5.70731409 18.2129058,6.0008787 C18.5310934,6.47150034 18.8028945,6.97184329 19.0244966,7.49488884 C19.2494267,8.02687139 19.421103,8.57981067 19.5370127,9.14561333 C19.6556524,9.72518148 19.7159807,10.3217958 19.7159807,10.9193265 C19.7159807,11.5168572 19.6558357,12.1134715 19.5370127,12.693223 C19.3066909,13.8182643 18.8567435,14.8868826 18.2129058,15.8379576 C17.8969053,16.3053324 17.5369681,16.7414695 17.1379973,17.140428 C16.7388737,17.5392886 16.302553,17.8991352 15.8349778,18.2150669 C14.8832407,18.8581514 13.8142709,19.3078674 12.6889175,19.5386158 C11.5178233,19.7756098 10.3110899,19.7756098 9.13999568,19.5386158 C8.01455994,19.3079499 6.94551451,18.8582282 5.99375198,18.2150669 C5.70021356,18.0226858 5.30651205,18.1017111 5.11002936,18.3924511 C4.91354668,18.6831911 4.98718094,19.0777768 5.27531261,19.2781584 C5.81507032,19.6425746 6.38888471,19.9538531 6.98871167,20.2076302 C7.59920744,20.4653936 8.23369016,20.6622275 8.88291248,20.7952632 C9.54744139,20.9310823 10.2310407,21 10.91464,21 C11.5982392,21 12.2818385,20.9310823 12.9465508,20.7952632 C13.5956474,20.6622007 14.2300058,20.4653672 14.8403849,20.2076302 C16.038179,19.7006767 17.1266844,18.9671382 18.0460401,18.047355 C18.5029993,17.5905808 18.9151953,17.0911579 19.2769956,16.555911 C20.0148832,15.4652066 20.5306716,14.2399312 20.7949234,12.9500146 C21.0686056,11.6099561 21.0683561,10.2284148 20.7941899,8.88845516 L20.7941899,8.88845516 Z" id="Path"></path>
                        <path d="M1.97424929,6.65560562 C2.19574513,6.13250836 2.46736789,5.63208748 2.78531554,5.16134759 C3.4185795,4.22442883 4.22549907,3.41753736 5.16242703,2.78431886 C6.11360389,2.1407873 7.18227018,1.6910166 8.3073479,1.46071272 C9.47791289,1.22334091 10.6842126,1.22334091 11.8547776,1.46071272 C12.9797426,1.69091443 14.0482968,2.14062808 14.9993319,2.78413556 C15.1891696,2.91248936 15.4330599,2.92981166 15.6391317,2.82957733 C15.8452035,2.729343 15.9821495,2.52678001 15.9983836,2.29819189 C16.0146177,2.06960377 15.9076735,1.84971849 15.7178358,1.7213647 C14.6271304,0.983756175 13.4018539,0.468162813 12.111936,0.204010921 C10.7716202,-0.0680036404 9.39032199,-0.0680036404 8.0500062,0.204010921 C7.40097797,0.336892107 6.76669153,0.533675963 6.15641851,0.791486019 C4.95926602,1.29861631 3.87130646,2.03216895 2.95229438,2.95185466 C2.03247456,3.87083322 1.29893048,4.95893436 0.792017113,6.15629762 C0.534268649,6.76644172 0.337434634,7.4005614 0.204383571,8.0494155 C-0.0683128859,9.38967519 -0.0681258713,10.771148 0.204933447,12.1113338 C0.468876459,13.4013674 0.984463751,14.6267332 1.72222305,15.7173861 C1.8173331,15.8585223 1.96469241,15.9560101 2.13178165,15.9883358 C2.29887089,16.0206615 2.4719551,15.9851679 2.61283795,15.8896877 C2.75382183,15.7944114 2.85118039,15.6470254 2.88349249,15.4799579 C2.91580458,15.3128904 2.88042291,15.1398292 2.78513225,14.9988518 C2.14182891,14.0476136 1.69215062,12.9789908 1.46176539,11.8539812 C1.34317559,11.2742047 1.28305587,10.6773813 1.28305587,10.0801914 C1.28305587,9.48300138 1.34317559,8.8859947 1.46176539,8.30640149 C1.57723923,7.74183883 1.74971682,7.18644116 1.97424929,6.65560562 L1.97424929,6.65560562 Z" id="Path"></path>
                        <path d="M10.6813536,5 C10.3050524,5 10,5.2706552 10,5.6045253 L10,10.1683459 C10,10.2080719 10.0046721,10.2476251 10.0134324,10.2866601 C10.0173258,10.3042777 10.0249181,10.3206863 10.0305636,10.3377857 C10.0373771,10.3585123 10.0428279,10.3794116 10.0521722,10.39962 C10.0615165,10.4196557 10.0743649,10.4377915 10.0860452,10.4566181 C10.0957789,10.4723358 10.1035658,10.4885716 10.1148568,10.5035984 C10.1399695,10.5367609 10.168197,10.5678508 10.1999286,10.5960044 L13.8367996,13.8229604 C13.9699555,13.941102 14.1441874,14 14.3186139,14 C14.4930404,14 14.6672723,13.9409292 14.8004283,13.8229604 C14.92821,13.7096177 15,13.5558735 15,13.3955611 C15,13.2352486 14.92821,13.0815044 14.8004283,12.9681617 L11.3627072,9.91789971 L11.3627072,5.6045253 C11.3627072,5.2706552 11.0576548,5 10.6813536,5 Z" id="Path"></path>
                    </g>
                </g>
            </g>
        </g>
    </g>
</svg>