<?xml version="1.0" encoding="UTF-8"?>
<svg width="23px" height="23px" viewBox="0 0 23 23" version="1.1" xmlns="http://www.w3.org/2000/svg" xmlns:xlink="http://www.w3.org/1999/xlink">
    <title>settings-gear-63</title>
    <g id="Design" stroke="none" stroke-width="1" fill="none" fill-rule="evenodd" stroke-linecap="square">
        <g id="Home-screen-Menu" transform="translate(-33.000000, -398.000000)" stroke="#2B3247">
            <g id="Group-7" transform="translate(31.000000, 273.000000)">
                <g id="Group-5" transform="translate(3.000000, 126.000000)">
                    <g id="settings-gear-63">
                        <path d="M21,12.4090909 L21,8.59090909 L17.8862727,8.59090909 C17.7058636,7.89218182 17.4309545,7.23354545 17.073,6.62645455 L19.2741818,4.42527273 L16.5747273,1.72581818 L14.3735455,3.927 C13.7664545,3.56904545 13.1078182,3.29413636 12.4090909,3.11372727 L12.4090909,0 L8.59090909,0 L8.59090909,3.11372727 C7.89218182,3.29413636 7.23354545,3.56904545 6.62645455,3.927 L4.42527273,1.72581818 L1.72581818,4.42527273 L3.927,6.62645455 C3.56904545,7.23354545 3.29413636,7.89218182 3.11372727,8.59090909 L0,8.59090909 L0,12.4090909 L3.11372727,12.4090909 C3.29413636,13.1078182 3.56904545,13.7664545 3.927,14.3735455 L1.72581818,16.5747273 L4.42527273,19.2741818 L6.62645455,17.073 C7.23259091,17.4309545 7.89218182,17.7058636 8.59090909,17.8862727 L8.59090909,21 L12.4090909,21 L12.4090909,17.8862727 C13.1078182,17.7058636 13.7664545,17.4309545 14.3735455,17.073 L16.5747273,19.2741818 L19.2741818,16.5747273 L17.073,14.3735455 C17.4309545,13.7674091 17.7058636,13.1078182 17.8862727,12.4090909 L21,12.4090909 Z" id="Path"></path>
                        <circle id="Oval" cx="10.5" cy="10.5" r="3"></circle>
                    </g>
                </g>
            </g>
        </g>
    </g>
</svg>