<?xml version="1.0" encoding="UTF-8"?>
<svg width="28px" height="30px" viewBox="0 0 28 30" version="1.1" xmlns="http://www.w3.org/2000/svg" xmlns:xlink="http://www.w3.org/1999/xlink">
    <title>single-01</title>
    <g id="Design" stroke="none" stroke-width="1" fill="none" fill-rule="evenodd">
        <g id="Home-screen-Menu" transform="translate(-55.000000, -153.000000)" fill="#FFFFFF" fill-rule="nonzero">
            <g id="Group-8" transform="translate(31.000000, 131.000000)">
                <g id="Avatar">
                    <g id="single-01" transform="translate(24.000000, 22.000000)">
                        <path d="M25.1430345,21.1514516 C22.8808276,20.3322581 19.1109655,19.3548387 14,19.3548387 C8.88903448,19.3548387 5.11917241,20.3322581 2.85696552,21.1514516 C1.148,21.7708065 0,23.4159677 0,25.2454839 L0,29.516129 C0,29.7832258 0.216275862,30 0.482758621,30 L27.5172414,30 C27.7837241,30 28,29.7832258 28,29.516129 L28,25.2454839 C28,23.4159677 26.852,21.7708065 25.1430345,21.1514516 Z" id="Path"></path>
                        <path d="M14,16.4516129 C17.9928966,16.4516129 21.2413793,13.1956452 21.2413793,9.19354839 L21.2413793,7.25806452 C21.2413793,3.25596774 17.9928966,0 14,0 C10.0071034,0 6.75862069,3.25596774 6.75862069,7.25806452 L6.75862069,9.19354839 C6.75862069,13.1956452 10.0071034,16.4516129 14,16.4516129 Z" id="Path"></path>
                    </g>
                </g>
            </g>
        </g>
    </g>
</svg>